<svg width="94" height="94" viewBox="0 0 94 94" fill="none" xmlns="http://www.w3.org/2000/svg">
<circle cx="47" cy="47" r="47" fill="#E8232E"/>
<path d="M50.0211 42.0788L49.0779 41.7465L48.6086 43.0788H50.0211V42.0788ZM51.5589 28.2201L51.1313 29.124V29.124L51.5589 28.2201ZM48.9021 28.7278L49.6433 29.3991L48.9021 28.7278ZM64.9638 44.5353L63.9818 44.3466L64.9638 44.5353ZM61.3604 63.289L62.3424 63.4777L61.3604 63.289ZM53.8214 31.2907L52.8782 30.9585V30.9585L53.8214 31.2907ZM52.7171 28.768L53.1447 27.8641L53.1447 27.8641L52.7171 28.768ZM27 62.9162C27 63.4685 27.4477 63.9162 28 63.9162C28.5523 63.9162 29 63.4685 29 62.9162H27ZM29 44.1625C29 43.6102 28.5523 43.1625 28 43.1625C27.4477 43.1625 27 43.6102 27 44.1625H29ZM35.8084 42.8496V62.9162H37.8084V42.8496H35.8084ZM39.0105 66H59.1938V64H39.0105V66ZM62.3424 63.4777L65.9459 44.724L63.9818 44.3466L60.3784 63.1003L62.3424 63.4777ZM62.7973 41.0788H50.0211V43.0788H62.7973V41.0788ZM50.9643 42.411L54.7645 31.623L52.8782 30.9585L49.0779 41.7465L50.9643 42.411ZM53.1447 27.8641L51.9866 27.3162L51.1313 29.124L52.2894 29.672L53.1447 27.8641ZM48.161 28.0564L36.5974 40.8221L38.0797 42.1648L49.6433 29.3991L48.161 28.0564ZM51.9866 27.3162C50.696 26.7055 49.1229 26.9946 48.161 28.0564L49.6433 29.3991C49.9966 29.009 50.6143 28.8794 51.1313 29.124L51.9866 27.3162ZM65.9459 44.724C66.3227 42.7627 64.7306 41.0788 62.7973 41.0788V43.0788C63.6117 43.0788 64.0965 43.7496 63.9818 44.3466L65.9459 44.724ZM59.1938 66C60.699 66 62.0545 64.9763 62.3424 63.4777L60.3784 63.1003C60.2856 63.5833 59.8172 64 59.1938 64V66ZM35.8084 62.9162C35.8084 64.6707 37.2948 66 39.0105 66V64C38.2939 64 37.8084 63.4635 37.8084 62.9162H35.8084ZM54.7645 31.623C55.2917 30.1266 54.5594 28.5334 53.1447 27.8641L52.2894 29.672C52.8351 29.9302 53.0441 30.4874 52.8782 30.9585L54.7645 31.623ZM37.8084 42.8496C37.8084 42.6069 37.8997 42.3636 38.0797 42.1648L36.5974 40.8221C36.0932 41.3788 35.8084 42.0974 35.8084 42.8496H37.8084ZM29 62.9162V44.1625H27V62.9162H29Z" fill="white"/>
</svg>
