<svg width="20" height="28" viewBox="0 0 20 28" fill="none" xmlns="http://www.w3.org/2000/svg">
<path d="M1.97168 21.1735L5.81349 27.9942L7.75699 24.5462L3.90953 17.7256L1.97168 21.1735Z" fill="#F4F4F4"/>
<path d="M20.0113 17.7258L18.0678 14.2837L14.226 21.1044L16.1638 24.5465L20.0113 17.7258Z" fill="#F4F4F4"/>
<path d="M11.9604 17.0894L10.0226 20.5373L14.226 27.9943L16.1638 24.5464L11.9604 17.0894Z" fill="#F4F4F4"/>
<path d="M0.0281982 17.7255L1.9717 21.1734L10.0225 6.89576L8.07904 3.45361L0.0281982 17.7255Z" fill="#F4F4F4"/>
<path d="M11.9604 17.0896L10.0225 13.6475L5.81348 21.1045L7.75698 24.5466L11.9604 17.0896Z" fill="#F4F4F4"/>
<path d="M18.0678 14.2835L10.0226 0.00585938L8.0791 3.45379L10.0226 6.89594L16.1299 17.7257L18.0678 14.2835Z" fill="#F4F4F4"/>
</svg>
