<svg width="54" height="73" viewBox="0 0 54 73" fill="none" xmlns="http://www.w3.org/2000/svg">
<path d="M26.6881 0C11.9722 0 0 12.1873 0 27.1676C0 35.5469 4.238 45.7175 12.5967 57.3967C18.7136 65.9439 24.7412 72.0397 24.9949 72.2952C25.4611 72.7646 26.0745 73 26.6885 73C27.2848 73 27.8815 72.7779 28.344 72.3323C28.5982 72.0875 34.6411 66.2385 40.7696 57.8093C49.1349 46.3031 53.3765 35.9938 53.3765 27.1675C53.3762 12.1873 41.4038 0 26.6881 0ZM26.6881 38.8962C19.4936 38.8962 13.6406 33.0431 13.6406 25.8488C13.6406 18.6544 19.4937 12.8013 26.6881 12.8013C33.8825 12.8013 39.7356 18.6544 39.7356 25.8488C39.7356 33.0431 33.8823 38.8962 26.6881 38.8962Z" fill="#E8232E"/>
</svg>
