<svg width="94" height="94" viewBox="0 0 94 94" fill="none" xmlns="http://www.w3.org/2000/svg">
<circle cx="47" cy="47" r="47" fill="#E8232E"/>
<path d="M28 29V28H27V29H28ZM63.7655 46.8827L63.0583 47.5898L63.7655 46.8827ZM45.8827 64.7655L46.5898 64.0583L45.8827 64.7655ZM46.1914 29.3086L46.8985 28.6015V28.6015L46.1914 29.3086ZM28.3086 47.1914L27.6015 47.8985H27.6015L28.3086 47.1914ZM37.7245 43.1192C38.938 44.3327 40.9056 44.3327 42.1192 43.1192L40.7049 41.705C40.2724 42.1375 39.5712 42.1375 39.1387 41.705L37.7245 43.1192ZM42.1192 43.1192C43.3327 41.9056 43.3327 39.9381 42.1192 38.7245L40.7049 40.1387C41.1374 40.5712 41.1374 41.2725 40.7049 41.705L42.1192 43.1192ZM42.1192 38.7245C40.9056 37.5109 38.938 37.5109 37.7245 38.7245L39.1387 40.1387C39.5712 39.7062 40.2724 39.7062 40.7049 40.1387L42.1192 38.7245ZM37.7245 38.7245C36.5109 39.9381 36.5109 41.9056 37.7245 43.1192L39.1387 41.705C38.7062 41.2725 38.7062 40.5712 39.1387 40.1387L37.7245 38.7245ZM29 46.4462V29H27V46.4462H29ZM28 30H45.4462V28H28V30ZM45.4843 30.0157L63.0583 47.5898L64.4726 46.1756L46.8985 28.6015L45.4843 30.0157ZM63.0583 47.5898C64.3139 48.8454 64.3139 50.881 63.0583 52.1365L64.4726 53.5507C66.5091 51.5142 66.5091 48.2122 64.4726 46.1756L63.0583 47.5898ZM63.0583 52.1365L51.1365 64.0583L52.5507 65.4726L64.4726 53.5507L63.0583 52.1365ZM51.1365 64.0583C49.881 65.3139 47.8454 65.3139 46.5898 64.0583L45.1756 65.4726C47.2122 67.5091 50.5142 67.5091 52.5507 65.4726L51.1365 64.0583ZM46.5898 64.0583L29.0157 46.4843L27.6015 47.8985L45.1756 65.4726L46.5898 64.0583ZM45.4462 30C45.4605 30 45.4742 30.0057 45.4843 30.0157L46.8985 28.6015C46.5133 28.2164 45.9909 28 45.4462 28V30ZM27 46.4462C27 46.9909 27.2164 47.5133 27.6015 47.8985L29.0157 46.4843C29.0057 46.4742 29 46.4605 29 46.4462H27Z" fill="white"/>
</svg>
